<svg width="96" height="562" fill="none" xmlns="http://www.w3.org/2000/svg"><path d="M49 512V0" stroke="#E5ECF4" stroke-width="15"/><circle cx="48" cy="174" r="48" fill="#FCB72B"/><path fill-rule="evenodd" clip-rule="evenodd" d="M53.8 150H33.01a4.003 4.003 0 0 0-3.997 3.998v39.979a4.002 4.002 0 0 0 3.998 3.997H53v-1.43a18.175 18.175 0 0 1 3.064-10.119.8.8 0 0 0-.1-1.009l-5.597-5.598a2.592 2.592 0 0 1 .19-3.837 2.694 2.694 0 0 1 3.58.275l7.893 7.893 1.13-1.131-5.362-5.364v-23.656A4.003 4.003 0 0 0 53.8 150Zm2.398 26.055-.93-.931a4.303 4.303 0 0 0-5.729-.378 4.192 4.192 0 0 0-.303 6.203l5.142 5.142a19.765 19.765 0 0 0-2.971 10.284H33.01a2.399 2.399 0 0 1-2.399-2.398v-2.399h19.99v-1.599h-19.99v-33.582h25.586v19.658Zm-25.586-21.258h25.586v-.799a2.399 2.399 0 0 0-2.398-2.399H33.01a2.399 2.399 0 0 0-2.398 2.399v.799ZM60.155 168.6l-1.078 1.179 4.903 4.495a5.611 5.611 0 0 1 1.813 4.127v19.573h1.6v-19.573a7.217 7.217 0 0 0-2.334-5.306l-4.904-4.495Zm-26.345-4.208h3.199c.883 0 1.599-.715 1.599-1.599v-3.198c0-.883-.716-1.599-1.6-1.599H33.81c-.883 0-1.599.716-1.599 1.599v3.198c0 .884.716 1.599 1.6 1.599Zm0-4.797h3.199v3.198H33.81v-3.198Zm11.194 4.797h-3.198c-.883 0-1.6-.715-1.6-1.599v-3.198a1.6 1.6 0 0 1 1.6-1.599h3.198c.884 0 1.6.716 1.6 1.599v3.198c0 .884-.716 1.599-1.6 1.599Zm0-4.797h-3.198v3.198h3.198v-3.198Zm4.798 4.797H53c.883 0 1.6-.715 1.6-1.599v-3.198c0-.883-.717-1.599-1.6-1.599h-3.198c-.884 0-1.6.716-1.6 1.599v3.198c0 .884.716 1.599 1.6 1.599Zm0-4.797H53v3.198h-3.198v-3.198Zm-12.793 12.793H33.81c-.883 0-1.599-.716-1.599-1.599v-3.198a1.6 1.6 0 0 1 1.6-1.6h3.198a1.6 1.6 0 0 1 1.599 1.6v3.198c0 .883-.716 1.599-1.6 1.599Zm0-4.797H33.81v3.198h3.199v-3.198Zm-3.199 12.793h3.199c.883 0 1.599-.716 1.599-1.599v-3.199c0-.883-.716-1.599-1.6-1.599H33.81c-.883 0-1.599.716-1.599 1.599v3.199c0 .883.716 1.599 1.6 1.599Zm0-4.798h3.199v3.199H33.81v-3.199Zm11.194-3.198h-3.198a1.6 1.6 0 0 1-1.6-1.599v-3.198a1.6 1.6 0 0 1 1.6-1.6h3.198a1.6 1.6 0 0 1 1.6 1.6v3.198c0 .883-.716 1.599-1.6 1.599Zm0-4.797h-3.198v3.198h3.198v-3.198Zm4.798 4.797H53c.883 0 1.6-.716 1.6-1.599v-3.198a1.6 1.6 0 0 0-1.6-1.6h-3.198a1.6 1.6 0 0 0-1.6 1.6v3.198c0 .883.716 1.599 1.6 1.599Zm0-4.797H53v3.198h-3.198v-3.198Zm-4.798 12.793h-3.198a1.6 1.6 0 0 1-1.6-1.599v-3.199a1.6 1.6 0 0 1 1.6-1.599h3.198c.884 0 1.6.716 1.6 1.599v3.199c0 .883-.716 1.599-1.6 1.599Zm0-4.798h-3.198v3.199h3.198v-3.199ZM33.81 188.38h3.199a1.6 1.6 0 0 0 1.599-1.6v-3.198c0-.883-.716-1.599-1.6-1.599H33.81c-.883 0-1.599.716-1.599 1.599v3.198a1.6 1.6 0 0 0 1.6 1.6Zm0-4.798h3.199v3.198H33.81v-3.198Zm11.194 4.798h-3.198a1.6 1.6 0 0 1-1.6-1.6v-3.198a1.6 1.6 0 0 1 1.6-1.599h3.198c.884 0 1.6.716 1.6 1.599v3.198a1.6 1.6 0 0 1-1.6 1.6Zm0-4.798h-3.198v3.198h3.198v-3.198Zm-.8 9.595h-1.598v1.599h1.599v-1.599Z" fill="#495567"/><circle cx="48" cy="344" r="48" fill="#FCB72B"/><path d="M45.07 358.301a.836.836 0 0 0-.585.242.835.835 0 0 0-.242.585c0 .217.088.431.242.585a.836.836 0 0 0 .585.242c.217 0 .43-.089.584-.242a.833.833 0 0 0 .243-.585.835.835 0 0 0-.243-.585.837.837 0 0 0-.584-.242Z" fill="#000"/><path fill-rule="evenodd" clip-rule="evenodd" d="m61.54 344.419-1.928-8.706c.52-.07.979-.335 1.301-.718.381.238.83.376 1.312.376h1.654c.456 0 .826-.37.826-.827v-3.307a.827.827 0 0 0-.826-.827h-1.654a2.47 2.47 0 0 0-1.346.398 2.06 2.06 0 0 0-1.546-.698h-4.88c-.878 0-1.628.55-1.927 1.323h-1.96c-1.186 0-2.15.964-2.15 2.15 0 1.185.965 2.149 2.15 2.149h4.256v1.667a.827.827 0 1 0 1.654 0v-1.667h1.447l2.075 9.379-3.928 6.996a2.428 2.428 0 0 1-2.113 1.235h-9.806c-.411-3.443-3.346-6.121-6.898-6.121a6.88 6.88 0 0 0-4.287 1.48l-.005.004a6.906 6.906 0 0 0-2.607 4.637h-1.698c.108-5.944 4.977-10.746 10.946-10.746h5.866a.84.84 0 0 1 .84.84v7.426c0 .456.37.827.826.827h4.4a4.934 4.934 0 0 0 4.932-4.927l.004-2.747a.827.827 0 1 0-1.654-.002l-.004 2.747a3.278 3.278 0 0 1-3.278 3.274h-3.573v-6.599a2.48 2.48 0 0 0-.293-1.172 2.482 2.482 0 0 0 1.244-2.149 2.484 2.484 0 0 0-2.48-2.481h-3.019c-.29 0-.568.05-.827.142v-7.253a2.484 2.484 0 0 0-2.48-2.481H34.77c-3.867 0-7.082 2.839-7.674 6.542a.834.834 0 0 0-.038.25v.014c-.039.317-.059.639-.059.966v4.301c0 1.242.918 2.274 2.11 2.453l1.832 1.831A12.566 12.566 0 0 0 27 353.544v.625c0 .457.37.827.827.827h4.647a.847.847 0 0 0-.017.165c0 1.2.444 2.298 1.176 3.14h-5.806a.827.827 0 1 0 0 1.654h9.33l.028.001.068.001a4.801 4.801 0 0 0 4.796-4.796.84.84 0 0 0-.016-.165h11.924a4.086 4.086 0 0 0 3.281-1.656h1.047a4.774 4.774 0 0 0 .815 4.961H48.377a.827.827 0 1 0 0 1.654h14.248l.096.002a4.801 4.801 0 0 0 4.796-4.796c0-.631-.125-1.248-.36-1.821h1.352c.457 0 .827-.37.827-.827 0-4.365-3.47-7.934-7.797-8.094Zm-18.127-5.132h3.018a.828.828 0 0 1 0 1.654h-3.018a.828.828 0 0 1 0-1.654Zm-14.757-3.576-.002.102v4.301c0 .456.37.827.826.827h10.625a.828.828 0 0 0 .827-.827v-9.592a.828.828 0 0 0-.827-.827h-5.334a6.129 6.129 0 0 0-5.845 4.311h8.78a.827.827 0 1 1 0 1.654h-9.048l-.002.051Zm2.821 6.884h1.892c-.397.226-.78.475-1.15.742l-.742-.742Zm5.808 15.708a3.146 3.146 0 0 0 3.11-3.142c0-.056.006-.112.017-.165h-6.317a.84.84 0 0 1 .016.165 3.145 3.145 0 0 0 3.047 3.14h.095l.019.001.013.001Zm-5.262-4.961a5.262 5.262 0 0 1 1.96-3.337l.007-.005a5.239 5.239 0 0 1 3.263-1.125 5.302 5.302 0 0 1 5.23 4.467h-10.46Zm31.029-21.278h-.827a.828.828 0 0 0 0 1.654h.827v-1.654Zm-12.982 1.519c0-.274.222-.497.496-.497h1.822v.582c0 .141.014.278.04.411h-1.862a.497.497 0 0 1-.496-.496Zm4.382.496h4.881c.227 0 .411-.184.411-.411v-1.494a.412.412 0 0 0-.41-.411h-4.882a.412.412 0 0 0-.41.411v1.494c0 .227.184.411.41.411Zm11.411 21.082a3.146 3.146 0 0 1-3.11 3.142l-.007-.001h-.007l-.018-.001h-.095a3.145 3.145 0 0 1-3.047-3.14c0-.657.205-1.292.582-1.821h5.12c.377.529.582 1.164.582 1.821Zm-4.507-9.091-3.153 5.616h9.426a6.454 6.454 0 0 0-6.273-5.616Z" fill="#495567"/><path d="M55.649 341.533a.827.827 0 1 0 0-1.653h-.003a.826.826 0 1 0 .003 1.653Z" fill="#000"/><circle cx="48" cy="514" r="48" fill="#FCB72B"/><path fill-rule="evenodd" clip-rule="evenodd" d="M64.171 512H66a.666.666 0 0 0 .667-.667V506a.667.667 0 0 0-.667-.667h-6.255l-1.078-2.157v-2.509A.666.666 0 0 0 58 500h-4a.666.666 0 0 0-.667.667v2.666c0 .369.299.667.667.667h3.588l1.079 2.157V510a2 2 0 1 0-4 0v-1.333A.666.666 0 0 0 54 508h-5.251l-2.082-.521v-10.812A2.667 2.667 0 0 0 44 494h-2.667a2.667 2.667 0 0 0-2.666 2.667V504h-3.334a2 2 0 0 0-2 2v2h-4.666a.666.666 0 0 0-.472 1.138l1.529 1.529-1.529 1.528a.668.668 0 0 0 .472 1.138h6.666a2 2 0 0 0 2-2v-2h1.334V516h-2a4.667 4.667 0 0 0-4.614 4H30a.666.666 0 0 0-.667.667v2.666c0 .369.299.667.667.667h2v1.333h-3.333A.667.667 0 0 0 28 526v2.667c0 .368.299.666.667.666H36a4.667 4.667 0 1 0 9.333 0h12a4.667 4.667 0 1 0 9.334 0h.666a.667.667 0 0 0 .65-.816L64.171 512Zm-9.504-2a2 2 0 1 0 4 0v14h-2v-.667a2 2 0 0 0-2-2V514a.667.667 0 0 0-.667-.667h-7.333v-1.812l1.838.459a.68.68 0 0 0 .162.02H54a.666.666 0 0 0 .667-.667V510Zm2.666-7.333h-2.666v-1.334h2.666v1.334ZM32 528v-1.333h-2.667V528H32Zm0-5.333h-1.333v-1.334H32v1.334Zm33.333-16H64v4h1.333v-4Zm-5.333 0h2.667v4H60v-4Zm-4.667 16.666a.666.666 0 0 0-.666-.666H52V524h3.333v-.667Zm-6.828-14.02c.053.014.107.02.162.02h4.666v1.334H48.75L44 509.479v-1.292l4.505 1.126Zm-7.172-13.98c-.736 0-1.333.597-1.333 1.334v2.666h2V498c0-.368.298-.667.667-.667h2.666v-.666c0-.737-.597-1.334-1.333-1.334h-2.667ZM40 500.667h2.667a.667.667 0 0 0 .666-.667v-1.333h2v1.504l-5.333 1.6v-1.104Zm5.333 4v-3.104l-5.333 1.6v1.504h5.333Zm0 1.333v1.146l-1.838-.459a.664.664 0 0 0-.828.646V510c0 .306.208.572.504.647l2.162.54v2.146H40V506h5.333Zm8 15.333v-6.666H40V516h11.333c.369 0 .667.298.667.667v4.666h1.333Zm-17.333-10a.666.666 0 0 1-.667.667h-5.057l.862-.862a.667.667 0 0 0 0-.943l-.862-.862H36v2ZM34.667 506v2h4v-2.667h-3.334a.667.667 0 0 0-.666.667Zm6 26.667a3.338 3.338 0 0 1-3.334-3.334h1.334a2 2 0 1 0 4 0H44a3.338 3.338 0 0 1-3.333 3.334Zm0-2.667a.666.666 0 0 0 .666-.667H40c0 .369.298.667.667.667Zm4.666-2H36v-6.667c0-.368.298-.666.667-.666h8c.368 0 .666.298.666.666V528Zm1.334 0H48v-7.333a3.338 3.338 0 0 0-3.333-3.334h-8a3.338 3.338 0 0 0-3.334 3.334V528h1.334v-6.667a2 2 0 0 1 2-2h8a2 2 0 0 1 2 2V528Zm1.26-10.667h2.74V524h-1.334v-3.333a4.652 4.652 0 0 0-1.406-3.334ZM62 532.667a3.338 3.338 0 0 1-3.333-3.334H60a2 2 0 1 0 4 0h1.333A3.338 3.338 0 0 1 62 532.667ZM62 530a.666.666 0 0 0 .667-.667h-1.334c0 .369.299.667.667.667Zm-2-2v-4.667h1.333V522H60v-10h2.8l3.692 16H60Zm-10.667 0h9.334v-2.667h-9.334V528ZM64 522h-1.333v1.333H64V522Zm-26.667 0h1.334v1.333h-1.334V522Zm4 0H40v1.333h1.333V522Zm1.334 0H44v1.333h-1.333V522Zm14-12.667a.667.667 0 1 1-.001 1.334.667.667 0 0 1 0-1.334ZM28 498.667h8.667V500H28v-1.333Zm9.333 2.666h-8v1.334h8v-1.334Z" fill="#495567"/></svg>